<svg version="1.1" id="Layer_1" xmlns="http://www.w3.org/2000/svg" xmlns:xlink="http://www.w3.org/1999/xlink" x="0px" y="0px"
	 width="100%" viewBox="0 0 170 170" enable-background="new 0 0 170 170" xml:space="preserve">
<path fill="#FFFFFF" opacity="1.000000" stroke="none" 
	d="
M94.000000,171.000000 
	C62.666672,171.000000 31.833342,171.000000 1.000008,171.000000 
	C1.000005,114.333344 1.000005,57.666687 1.000003,1.000024 
	C57.666653,1.000016 114.333305,1.000016 170.999969,1.000008 
	C170.999969,57.666641 170.999969,114.333282 170.999985,170.999969 
	C145.500000,171.000000 120.000000,171.000000 94.000000,171.000000 
M118.579170,96.038078 
	C118.669167,95.690582 118.759171,95.343094 118.983315,94.068306 
	C118.983315,88.448570 118.983315,82.828827 118.983315,76.783081 
	C94.133133,76.783081 69.680756,76.783081 45.153290,76.783081 
	C45.153290,83.050301 45.153290,89.021240 45.071873,95.589684 
	C45.379978,95.741211 45.688084,95.892738 46.915653,96.247742 
	C52.386028,96.258400 57.856544,96.299324 63.326756,96.274170 
	C81.550774,96.190369 99.774696,96.082863 118.579170,96.038078 
M122.376106,122.943184 
	C96.658707,122.943184 70.941307,122.943184 45.350533,122.943184 
	C45.350533,130.009537 45.350533,136.245377 45.350533,142.392731 
	C73.060600,142.392731 100.418076,142.392731 127.809296,142.392731 
	C127.809296,135.862610 127.809296,129.740021 127.809296,123.256363 
	C126.226425,123.145325 124.785637,123.044258 122.376106,122.943184 
M105.499931,48.202019 
	C112.901039,48.202019 120.302155,48.202019 127.657715,48.202019 
	C127.657715,41.188526 127.657715,34.971004 127.657715,28.740345 
	C99.956810,28.740345 72.593765,28.740345 45.335087,28.740345 
	C45.335087,35.354675 45.335087,41.602222 45.335087,48.202118 
	C65.278702,48.202118 84.889320,48.202118 105.499931,48.202019 
z"/>
<path fill="#194265" opacity="1.000000" stroke="none" 
	d="
M122.860474,122.943184 
	C124.785637,123.044258 126.226425,123.145325 127.809296,123.256363 
	C127.809296,129.740021 127.809296,135.862610 127.809296,142.392731 
	C100.418076,142.392731 73.060600,142.392731 45.350533,142.392731 
	C45.350533,136.245377 45.350533,130.009537 45.350533,122.943184 
	C70.941307,122.943184 96.658707,122.943184 122.860474,122.943184 
z"/>
<path fill="#194265" opacity="1.000000" stroke="none" 
	d="
M104.999939,48.202068 
	C84.889320,48.202118 65.278702,48.202118 45.335087,48.202118 
	C45.335087,41.602222 45.335087,35.354675 45.335087,28.740345 
	C72.593765,28.740345 99.956810,28.740345 127.657715,28.740345 
	C127.657715,34.971004 127.657715,41.188526 127.657715,48.202019 
	C120.302155,48.202019 112.901039,48.202019 104.999939,48.202068 
z"/>
<path fill="#194265" opacity="1.000000" stroke="none" 
	d="
M45.153290,94.992180 
	C45.153290,89.021240 45.153290,83.050301 45.153290,76.783081 
	C69.680756,76.783081 94.133133,76.783081 118.983315,76.783081 
	C118.983315,82.828827 118.983315,88.448570 118.720200,94.645775 
	C118.202477,95.415657 118.049660,95.669388 117.998650,95.984436 
	C99.774696,96.082863 81.550774,96.190369 63.326756,96.274170 
	C57.856544,96.299324 52.386028,96.258400 46.387230,95.921432 
	C45.685917,95.321281 45.450745,95.120300 45.153290,94.992180 
z"/>
<path fill="#355977" opacity="1.000000" stroke="none" 
	d="
M45.112579,95.290932 
	C45.450745,95.120300 45.685917,95.321281 45.927498,95.819702 
	C45.688084,95.892738 45.379978,95.741211 45.112579,95.290932 
z"/>
<path fill="#355977" opacity="1.000000" stroke="none" 
	d="
M118.288910,96.011261 
	C118.049660,95.669388 118.202477,95.415657 118.653130,95.109421 
	C118.759171,95.343094 118.669167,95.690582 118.288910,96.011261 
z"/>
</svg>